<?xml version="1.0" encoding="UTF-8" standalone="no"?><!-- Generator: Gravit.io --><svg xmlns="http://www.w3.org/2000/svg" xmlns:xlink="http://www.w3.org/1999/xlink" style="isolation:isolate" viewBox="0 0 1024 768" width="1024pt" height="768pt"><defs><clipPath id="_clipPath_N7QTC0DNMBIHdYy3n2pWUsIkni1Fk2IR"><rect width="1024" height="768"/></clipPath></defs><g clip-path="url(#_clipPath_N7QTC0DNMBIHdYy3n2pWUsIkni1Fk2IR)"><clipPath id="_clipPath_J3YoQFuKKfwyD68lOEnEp8nSxfKL3RJv"><rect x="0" y="0" width="1024" height="768" transform="matrix(1,0,0,1,0,0)" fill="rgb(255,255,255)"/></clipPath><g clip-path="url(#_clipPath_J3YoQFuKKfwyD68lOEnEp8nSxfKL3RJv)"><g><text transform="matrix(1,0,0,1,47,44.377)" style="font-family:'Open Sans';font-weight:400;font-size:20px;font-style:normal;font-variant-ligatures:none;fill:[Object GRGBColor];stroke:none;">LOGO</text><text transform="matrix(1,0,0,1,47,71.377)" style="font-family:'Open Sans';font-weight:400;font-size:20px;font-style:normal;font-variant-ligatures:none;fill:[Object GRGBColor];stroke:none;">ETHICS STRAPLINE</text><text transform="matrix(1,0,0,1,527,71.377)" style="font-family:'Open Sans';font-weight:400;font-size:20px;font-style:normal;font-variant-ligatures:none;fill:[Object GRGBColor];stroke:none;">NAVIGATION LINKS, LINK 2, LINK 3, LINK (N)</text><rect x="114" y="140" width="800" height="300" transform="matrix(1,0,0,1,0,0)" fill="rgb(255,255,255)" vector-effect="non-scaling-stroke" stroke-width="1" stroke="rgb(0,0,0)" stroke-opacity="100" stroke-linejoin="miter" stroke-linecap="square" stroke-miterlimit="2"/><linearGradient id="_lgradient_0" x1="0" y1="0.5" x2="0.005434702347261225" y2="-0.49998523189614985"><stop offset="7.0015994185875075%" stop-opacity="1" style="stop-color:rgb(255,255,255)"/><stop offset="99.9308923478804%" stop-opacity="1" style="stop-color:rgb(0,0,0)"/></linearGradient><rect x="114" y="490" width="800" height="300" transform="matrix(1,0,0,1,0,0)" fill="none" vector-effect="non-scaling-stroke" stroke-width="1" stroke="url(#_lgradient_0)" stroke-linejoin="miter" stroke-linecap="square" stroke-miterlimit="2"/><text transform="matrix(1,0,0,1,117,163.377)" style="font-family:'Open Sans';font-weight:400;font-size:20px;font-style:normal;font-variant-ligatures:none;fill:[Object GRGBColor];stroke:none;">ANIMATED CAROUSEL: SNAPSHOT OF EACH PAGE ON THE WEBSITE </text><text transform="matrix(1,0,0,1,117,511.377)" style="font-family:'Open Sans';font-weight:400;font-size:20px;font-style:normal;font-variant-ligatures:none;fill:[Object GRGBColor];stroke:none;">MAIN CONTENT: AS YOU SCROLL IT BECOMES VISIBLE</text><text transform="matrix(1,0,0,1,207.5,297.759)" style="font-family:'Open Sans';font-weight:400;font-size:20px;font-style:normal;font-variant-ligatures:none;fill:[Object GRGBColor];stroke:none;">E.G: Share Your Solution With Governments/Procurers Worldwide</text><text transform="matrix(1,0,0,1,207.5,657.777)" style="font-family:'Open Sans';font-weight:400;font-size:20px;font-style:normal;font-variant-ligatures:none;fill:[Object GRGBColor];stroke:none;">E.G: Two questions animate up into view from a vertical/opaque offset</text></g></g></g></svg>