<?xml version="1.0" encoding="UTF-8" standalone="no"?><!-- Generator: Gravit.io --><svg xmlns="http://www.w3.org/2000/svg" xmlns:xlink="http://www.w3.org/1999/xlink" style="isolation:isolate" viewBox="0 0 1024 768" width="1024pt" height="768pt"><defs><clipPath id="_clipPath_8DkH3L9ctbk3D4P8MHbhpf4eMA0qNuZO"><rect width="1024" height="768"/></clipPath></defs><g clip-path="url(#_clipPath_8DkH3L9ctbk3D4P8MHbhpf4eMA0qNuZO)"><text transform="matrix(1,0,0,1,47,44.377)" style="font-family:'Open Sans';font-weight:400;font-size:20px;font-style:normal;fill:#000000;stroke:none;">LOGO</text><text transform="matrix(1,0,0,1,47,71.377)" style="font-family:'Open Sans';font-weight:400;font-size:20px;font-style:normal;fill:#000000;stroke:none;">ETHICS STRAPLINE</text><text transform="matrix(1,0,0,1,527,71.377)" style="font-family:'Open Sans';font-weight:400;font-size:20px;font-style:normal;fill:#000000;stroke:none;">NAVIGATION LINKS, LINK 2, LINK 3, LINK (N)</text><text transform="matrix(1,0,0,1,22,714.377)" style="font-family:'Open Sans';font-weight:400;font-size:20px;font-style:normal;fill:#000000;stroke:none;">SVG ANIMATION </text><text transform="matrix(1,0,0,1,22,741.613)" style="font-family:'Open Sans';font-weight:400;font-size:20px;font-style:normal;fill:#000000;stroke:none;">BACKGROUND</text><g><g><linearGradient id="_lgradient_3" x1="1" y1="0.4999999999999999" x2="2.220446049250313e-16" y2="0.5"><stop offset="0%" stop-opacity="1" style="stop-color:rgb(255,255,255)"/><stop offset="100%" stop-opacity="1" style="stop-color:rgb(0,0,0)"/></linearGradient><rect x="380" y="210" width="234" height="184.737" transform="matrix(1,0,0,1,0,0)" fill="rgb(255,255,255)" vector-effect="non-scaling-stroke" stroke-width="1" stroke="url(#_lgradient_3)" stroke-linejoin="miter" stroke-linecap="square" stroke-miterlimit="2"/><text transform="matrix(1,0,0,1,390,243.377)" style="font-family:'Open Sans';font-weight:400;font-size:20px;font-style:normal;fill:#000000;stroke:none;">WEBSITE CONTENT</text><text transform="matrix(1,0,0,1,390,313.377)" style="font-family:'Open Sans';font-weight:400;font-size:20px;font-style:normal;fill:#000000;stroke:none;">1) SVG PICTURE &#x26; TEXT</text></g></g><g><g><linearGradient id="_lgradient_4" x1="1" y1="0.5" x2="2.220446049250313e-16" y2="0.5000000000000001"><stop offset="0%" stop-opacity="1" style="stop-color:rgb(255,255,255)"/><stop offset="100%" stop-opacity="1" style="stop-color:rgb(0,0,0)"/></linearGradient><rect x="560" y="420" width="234" height="184.737" transform="matrix(1,0,0,1,0,0)" fill="rgb(255,255,255)" vector-effect="non-scaling-stroke" stroke-width="1" stroke="url(#_lgradient_4)" stroke-linejoin="miter" stroke-linecap="square" stroke-miterlimit="2"/><text transform="matrix(1,0,0,1,570,453.377)" style="font-family:'Open Sans';font-weight:400;font-size:20px;font-style:normal;fill:#000000;stroke:none;">WEBSITE CONTENT</text><text transform="matrix(1,0,0,1,570,523.377)" style="font-family:'Open Sans';font-weight:400;font-size:20px;font-style:normal;fill:#000000;stroke:none;">1) SVG PICTURE &#x26; TEXT</text></g></g><text transform="matrix(1,0,0,1,185.5,161.759)" style="font-family:'Open Sans';font-weight:400;font-size:20px;font-style:normal;fill:#000000;stroke:none;">E.G: SLIDES WITH TEXT AND IMAGES COME AND GO. 1 OR 2 AT A TIME</text><rect x="14" y="14" width="1000" height="738" transform="matrix(1,0,0,1,0,0)" fill="none" vector-effect="non-scaling-stroke" stroke-width="1" stroke="rgb(0,0,0)" stroke-linejoin="miter" stroke-linecap="square" stroke-miterlimit="2"/></g></svg>