<?xml version="1.0" encoding="UTF-8" standalone="no"?><!-- Generator: Gravit.io --><svg xmlns="http://www.w3.org/2000/svg" xmlns:xlink="http://www.w3.org/1999/xlink" style="isolation:isolate" viewBox="0 0 1024 768" width="1024pt" height="768pt"><defs><clipPath id="_clipPath_fgRJqEraCSLVzOsgQZEHaUsKRQVGnWXK"><rect width="1024" height="768"/></clipPath></defs><g clip-path="url(#_clipPath_fgRJqEraCSLVzOsgQZEHaUsKRQVGnWXK)"><text transform="matrix(1,0,0,1,47,44.377)" style="font-family:'Open Sans';font-weight:400;font-size:20px;font-style:normal;fill:#000000;stroke:none;">LOGO</text><text transform="matrix(1,0,0,1,47,71.377)" style="font-family:'Open Sans';font-weight:400;font-size:20px;font-style:normal;fill:#000000;stroke:none;">ETHICS STRAPLINE</text><text transform="matrix(1,0,0,1,527,71.377)" style="font-family:'Open Sans';font-weight:400;font-size:20px;font-style:normal;fill:#000000;stroke:none;">NAVIGATION LINKS, LINK 2, LINK 3, LINK (N)</text><rect x="114" y="140" width="800" height="300" transform="matrix(1,0,0,1,0,0)" fill="rgb(255,255,255)" vector-effect="non-scaling-stroke" stroke-width="1" stroke="rgb(0,0,0)" stroke-linejoin="miter" stroke-linecap="square" stroke-miterlimit="2"/><linearGradient id="_lgradient_0" x1="0.486287878787879" y1="0.9297979797979823" x2="0.4881818181818182" y2="0.0005050505050530063"><stop offset="0%" stop-opacity="1" style="stop-color:rgb(255,255,255)"/><stop offset="100%" stop-opacity="1" style="stop-color:rgb(0,0,0)"/></linearGradient><rect x="114" y="490" width="800" height="300" transform="matrix(1,0,0,1,0,0)" fill="none" vector-effect="non-scaling-stroke" stroke-width="1" stroke="url(#_lgradient_0)" stroke-linejoin="miter" stroke-linecap="square" stroke-miterlimit="2"/><text transform="matrix(1,0,0,1,117,163.377)" style="font-family:'Open Sans';font-weight:400;font-size:20px;font-style:normal;fill:#000000;stroke:none;">ANIMATED CAROUSEL: SNAPSHOT OF EACH PAGE ON THE WEBSITE </text><text transform="matrix(1,0,0,1,117,511.377)" style="font-family:'Open Sans';font-weight:400;font-size:20px;font-style:normal;fill:#000000;stroke:none;">MAIN CONTENT: AS YOU SCROLL IT BECOMES VISIBLE</text><text transform="matrix(1,0,0,1,207.5,297.759)" style="font-family:'Open Sans';font-weight:400;font-size:20px;font-style:normal;fill:#000000;stroke:none;">E.G: Share Your Solution With Governments/Procurers Worldwide</text><text transform="matrix(1,0,0,1,207.5,657.777)" style="font-family:'Open Sans';font-weight:400;font-size:20px;font-style:normal;fill:#000000;stroke:none;">E.G: Two questions animate up into view from a vertical/opaque offset</text></g></svg>