<?xml version="1.0" encoding="UTF-8" standalone="no"?><!-- Generator: Gravit.io --><svg xmlns="http://www.w3.org/2000/svg" xmlns:xlink="http://www.w3.org/1999/xlink" style="isolation:isolate" viewBox="0 0 1024 768" width="1024pt" height="768pt"><defs><clipPath id="_clipPath_vNCM4sPwdTNNEAe2STaprN9XrU468Z9r"><rect width="1024" height="768"/></clipPath></defs><g clip-path="url(#_clipPath_vNCM4sPwdTNNEAe2STaprN9XrU468Z9r)"><clipPath id="_clipPath_QgIhIm4eIEaAAsHbeMpoigmwozRSHccf"><rect x="0" y="0" width="1024" height="768" transform="matrix(1,0,0,1,0,0)" fill="rgb(255,255,255)"/></clipPath><g clip-path="url(#_clipPath_QgIhIm4eIEaAAsHbeMpoigmwozRSHccf)"><g><text transform="matrix(1,0,0,1,47,44.377)" style="font-family:'Open Sans';font-weight:400;font-size:20px;font-style:normal;font-variant-ligatures:none;fill:[Object GCMYKColor];stroke:none;">LOGO</text><text transform="matrix(1,0,0,1,47,71.377)" style="font-family:'Open Sans';font-weight:400;font-size:20px;font-style:normal;font-variant-ligatures:none;fill:[Object GCMYKColor];stroke:none;">ETHICS STRAPLINE</text><text transform="matrix(1,0,0,1,527,71.377)" style="font-family:'Open Sans';font-weight:400;font-size:20px;font-style:normal;font-variant-ligatures:none;fill:[Object GCMYKColor];stroke:none;">NAVIGATION LINKS, LINK 2, LINK 3, LINK (N)</text><rect x="114" y="140" width="800" height="300" transform="matrix(1,0,0,1,0,0)" fill="rgb(255,255,255)" vector-effect="non-scaling-stroke" stroke-width="1" stroke="rgb(0,0,0)" stroke-opacity="100" stroke-linejoin="miter" stroke-linecap="square" stroke-miterlimit="2"/><text transform="matrix(1,0,0,1,117,163.377)" style="font-family:'Open Sans';font-weight:400;font-size:20px;font-style:normal;font-variant-ligatures:none;fill:[Object GCMYKColor];stroke:none;">MAIN CONTENT: INFORMATION/INFO GRAPHIC</text><text transform="matrix(1,0,0,1,420,297.759)" style="font-family:'Open Sans';font-weight:400;font-size:20px;font-style:normal;font-variant-ligatures:none;fill:[Object GCMYKColor];stroke:none;">E.G: INFO--GRAPHIC</text><g><linearGradient id="_lgradient_2" x1="0" y1="0.5" x2="0.005434702347261225" y2="-0.49998523189614985"><stop offset="7.0015994185875075%" stop-opacity="1" style="stop-color:rgb(255,255,255)"/><stop offset="99.9308923478804%" stop-opacity="1" style="stop-color:rgb(0,0,0)"/></linearGradient><rect x="114" y="490" width="390" height="300" transform="matrix(1,0,0,1,0,0)" fill="none" vector-effect="non-scaling-stroke" stroke-width="1" stroke="url(#_lgradient_2)" stroke-linejoin="miter" stroke-linecap="square" stroke-miterlimit="2"/><text transform="matrix(1,0,0,1,117,511.377)" style="font-family:'Open Sans';font-weight:400;font-size:20px;font-style:normal;font-variant-ligatures:none;fill:[Object GCMYKColor];stroke:none;">MAIN CONTENT:</text><text transform="matrix(1,0,0,1,117,538.613)" style="font-family:'Open Sans';font-weight:400;font-size:20px;font-style:normal;font-variant-ligatures:none;fill:[Object GCMYKColor];stroke:none;">AS YOU SCROLL IT BECOMES VISIBLE</text><text transform="matrix(1,0,0,1,199,647.759)" style="font-family:'Open Sans';font-weight:400;font-size:20px;font-style:normal;font-variant-ligatures:none;fill:[Object GCMYKColor];stroke:none;">E.G: We need your help</text></g><g><linearGradient id="_lgradient_3" x1="0" y1="0.5" x2="0.005434702347261225" y2="-0.49998523189614985"><stop offset="7.0015994185875075%" stop-opacity="1" style="stop-color:rgb(255,255,255)"/><stop offset="99.9308923478804%" stop-opacity="1" style="stop-color:rgb(0,0,0)"/></linearGradient><rect x="524" y="490" width="390" height="300" transform="matrix(1,0,0,1,0,0)" fill="none" vector-effect="non-scaling-stroke" stroke-width="1" stroke="url(#_lgradient_3)" stroke-linejoin="miter" stroke-linecap="square" stroke-miterlimit="2"/><text transform="matrix(1,0,0,1,527,511.377)" style="font-family:'Open Sans';font-weight:400;font-size:20px;font-style:normal;font-variant-ligatures:none;fill:[Object GCMYKColor];stroke:none;">MAIN CONTENT:</text><text transform="matrix(1,0,0,1,527,538.613)" style="font-family:'Open Sans';font-weight:400;font-size:20px;font-style:normal;font-variant-ligatures:none;fill:[Object GCMYKColor];stroke:none;">AS YOU SCROLL IT BECOMES VISIBLE</text><text transform="matrix(1,0,0,1,609,647.759)" style="font-family:'Open Sans';font-weight:400;font-size:20px;font-style:normal;font-variant-ligatures:none;fill:[Object GCMYKColor];stroke:none;">E.G:  Easy steps 1, 2, 3</text></g></g></g></g></svg>