<?xml version="1.0" encoding="UTF-8" standalone="no"?><!-- Generator: Gravit.io --><svg xmlns="http://www.w3.org/2000/svg" xmlns:xlink="http://www.w3.org/1999/xlink" style="isolation:isolate" viewBox="0 0 1024 768" width="1024pt" height="768pt"><defs><clipPath id="_clipPath_W2ERoIRm8Xh7vtOZBLfKW8ucwjN8Bju8"><rect width="1024" height="768"/></clipPath></defs><g clip-path="url(#_clipPath_W2ERoIRm8Xh7vtOZBLfKW8ucwjN8Bju8)"><text transform="matrix(1,0,0,1,47,44.377)" style="font-family:'Open Sans';font-weight:400;font-size:20px;font-style:normal;fill:#000000;stroke:none;">LOGO</text><text transform="matrix(1,0,0,1,47,71.377)" style="font-family:'Open Sans';font-weight:400;font-size:20px;font-style:normal;fill:#000000;stroke:none;">ETHICS STRAPLINE</text><text transform="matrix(1,0,0,1,527,71.377)" style="font-family:'Open Sans';font-weight:400;font-size:20px;font-style:normal;fill:#000000;stroke:none;">NAVIGATION LINKS, LINK 2, LINK 3, LINK (N)</text><g><rect x="534" y="140" width="380" height="300" transform="matrix(1,0,0,1,0,0)" fill="rgb(255,255,255)" vector-effect="non-scaling-stroke" stroke-width="1" stroke="rgb(0,0,0)" stroke-linejoin="miter" stroke-linecap="square" stroke-miterlimit="2"/><text transform="matrix(1,0,0,1,537,163.377)" style="font-family:'Open Sans';font-weight:400;font-size:20px;font-style:normal;fill:#000000;stroke:none;">EASY STEPS: GUIDANCE</text><text transform="matrix(1,0,0,1,547.5,217.777)" style="font-family:'Open Sans';font-weight:400;font-size:20px;font-style:normal;fill:#000000;stroke:none;">E.G: SEPARATE MESSAGES TOPICS ON </text><text transform="matrix(1,0,0,1,547.5,245.013)" style="font-family:'Open Sans';font-weight:400;font-size:20px;font-style:normal;fill:#000000;stroke:none;">DIFFERENT PAGES</text><text transform="matrix(1,0,0,1,655.285,299.486)" style="font-family:'Open Sans';font-weight:400;font-size:20px;font-style:normal;fill:#000000;stroke:none;">1) APPLY HERE</text><text transform="matrix(1,0,0,1,647.199,326.722)" style="font-family:'Open Sans';font-weight:400;font-size:20px;font-style:normal;fill:#000000;stroke:none;">2) SEARCH HERE</text><text transform="matrix(1,0,0,1,655.139,353.959)" style="font-family:'Open Sans';font-weight:400;font-size:20px;font-style:normal;fill:#000000;stroke:none;">3) VOLUNTEER</text></g><rect x="114" y="140" width="380" height="300" transform="matrix(1,0,0,1,0,0)" fill="rgb(255,255,255)" vector-effect="non-scaling-stroke" stroke-width="1" stroke="rgb(0,0,0)" stroke-linejoin="miter" stroke-linecap="square" stroke-miterlimit="2"/><text transform="matrix(1,0,0,1,117,163.377)" style="font-family:'Open Sans';font-weight:400;font-size:20px;font-style:normal;fill:#000000;stroke:none;">VIDEO: INFO COMMERCIAL</text><text transform="matrix(1,0,0,1,117,433.377)" style="font-family:'Open Sans';font-weight:400;font-size:20px;font-style:normal;fill:#000000;stroke:none;">VIDEO CONTROLS</text><text transform="matrix(1,0,0,1,207.5,297.759)" style="font-family:'Open Sans';font-weight:400;font-size:20px;font-style:normal;fill:#000000;stroke:none;">E.G: SLIDES WITH TEXT</text><g><rect x="114" y="140" width="400" height="300" transform="matrix(1,0,0,1,0,0)" fill="rgb(255,255,255)" vector-effect="non-scaling-stroke" stroke-width="1" stroke="rgb(0,0,0)" stroke-linejoin="miter" stroke-linecap="square" stroke-miterlimit="2"/><text transform="matrix(1,0,0,1,117,163.377)" style="font-family:'Open Sans';font-weight:400;font-size:20px;font-style:normal;fill:#000000;stroke:none;">VIDEO: INFO COMMERCIAL</text><text transform="matrix(1,0,0,1,117,433.377)" style="font-family:'Open Sans';font-weight:400;font-size:20px;font-style:normal;fill:#000000;stroke:none;">VIDEO CONTROLS</text><text transform="matrix(1,0,0,1,207.5,297.759)" style="font-family:'Open Sans';font-weight:400;font-size:20px;font-style:normal;fill:#000000;stroke:none;">E.G: SLIDES WITH TEXT</text></g><g><linearGradient id="_lgradient_1" x1="-0.004242424242424381" y1="0.48030303030303245" x2="0.9976515151515151" y2="0.48535353535353787"><stop offset="0%" stop-opacity="1" style="stop-color:rgb(255,255,255)"/><stop offset="100%" stop-opacity="1" style="stop-color:rgb(0,0,0)"/></linearGradient><rect x="114" y="470" width="800" height="208" transform="matrix(1,0,0,1,0,0)" fill="none" vector-effect="non-scaling-stroke" stroke-width="1" stroke="url(#_lgradient_1)" stroke-linejoin="miter" stroke-linecap="square" stroke-miterlimit="2"/><text transform="matrix(1,0,0,1,117,491.377)" style="font-family:'Open Sans';font-weight:400;font-size:20px;font-style:normal;fill:#000000;stroke:none;">MAIN CONTENT: VISUAL IMAGES AS BACKGROUNDS</text><text transform="matrix(1,0,0,1,347,581.759)" style="font-family:'Open Sans';font-weight:400;font-size:20px;font-style:normal;fill:#000000;stroke:none;">E.G: MAIN CONTENT INFORMATION</text></g><g><linearGradient id="_lgradient_2" x1="-0.004242424242424381" y1="0.48030303030303245" x2="0.9976515151515151" y2="0.48535353535353787"><stop offset="0%" stop-opacity="1" style="stop-color:rgb(255,255,255)"/><stop offset="100%" stop-opacity="1" style="stop-color:rgb(0,0,0)"/></linearGradient><rect x="114" y="700" width="800" height="208" transform="matrix(1,0,0,1,0,0)" fill="none" vector-effect="non-scaling-stroke" stroke-width="1" stroke="url(#_lgradient_2)" stroke-linejoin="miter" stroke-linecap="square" stroke-miterlimit="2"/><text transform="matrix(1,0,0,1,117,721.377)" style="font-family:'Open Sans';font-weight:400;font-size:20px;font-style:normal;fill:#000000;stroke:none;">MAIN CONTENT: VISUAL IMAGES AS BACKGROUNDS</text><text transform="matrix(1,0,0,1,347,751.759)" style="font-family:'Open Sans';font-weight:400;font-size:20px;font-style:normal;fill:#000000;stroke:none;">E.G: MAIN CONTENT INFORMATION</text></g></g></svg>