<?xml version="1.0" encoding="UTF-8" standalone="no"?><!-- Generator: Gravit.io --><svg xmlns="http://www.w3.org/2000/svg" xmlns:xlink="http://www.w3.org/1999/xlink" style="isolation:isolate" viewBox="0 0 1024 768" width="1024pt" height="768pt"><defs><clipPath id="_clipPath_2K3sJsgMXB759EOEVXk8JVhd07lQKGxv"><rect width="1024" height="768"/></clipPath></defs><g clip-path="url(#_clipPath_2K3sJsgMXB759EOEVXk8JVhd07lQKGxv)"><clipPath id="_clipPath_zrhukdhiY40vrK0nsw0aVpFulQsZ74Gh"><rect x="0" y="0" width="1024" height="768" transform="matrix(1,0,0,1,0,0)" fill="rgb(255,255,255)"/></clipPath><g clip-path="url(#_clipPath_zrhukdhiY40vrK0nsw0aVpFulQsZ74Gh)"><g><g><text transform="matrix(1,0,0,1,47,44.377)" style="font-family:'Open Sans';font-weight:400;font-size:20px;font-style:normal;font-variant-ligatures:none;fill:[Object GCMYKColor];stroke:none;">LOGO</text><text transform="matrix(1,0,0,1,47,71.377)" style="font-family:'Open Sans';font-weight:400;font-size:20px;font-style:normal;font-variant-ligatures:none;fill:[Object GCMYKColor];stroke:none;">ETHICS STRAPLINE</text><text transform="matrix(1,0,0,1,527,71.377)" style="font-family:'Open Sans';font-weight:400;font-size:20px;font-style:normal;font-variant-ligatures:none;fill:[Object GCMYKColor];stroke:none;">NAVIGATION LINKS, LINK 2, LINK 3, LINK (N)</text></g><g><rect x="114" y="490" width="800" height="300" transform="matrix(1,0,0,1,0,0)" fill="rgb(255,255,255)" vector-effect="non-scaling-stroke" stroke-width="1" stroke="rgb(0,0,0)" stroke-opacity="100" stroke-linejoin="miter" stroke-linecap="square" stroke-miterlimit="2"/><text transform="matrix(1,0,0,1,117,513.377)" style="font-family:'Open Sans';font-weight:400;font-size:20px;font-style:normal;font-variant-ligatures:none;fill:[Object GCMYKColor];stroke:none;">MAIN CONTENT: FEATURE LOCALIZED PROJECTS/TENDERS</text><text transform="matrix(1,0,0,1,420,647.759)" style="font-family:'Open Sans';font-weight:400;font-size:20px;font-style:normal;font-variant-ligatures:none;fill:[Object GCMYKColor];stroke:none;">E.G: USA CONTENT</text></g><g><g><rect x="114" y="140" width="390" height="300" transform="matrix(1,0,0,1,0,0)" fill="none" vector-effect="non-scaling-stroke" stroke-width="1" stroke="rgb(0,0,0)" stroke-linejoin="miter" stroke-linecap="square" stroke-miterlimit="2"/><text transform="matrix(1,0,0,1,117,161.377)" style="font-family:'Open Sans';font-weight:400;font-size:20px;font-style:normal;font-variant-ligatures:none;fill:[Object GCMYKColor];stroke:none;">MAIN CONTENT:</text><text transform="matrix(1,0,0,1,117,188.613)" style="font-family:'Open Sans';font-weight:400;font-size:20px;font-style:normal;font-variant-ligatures:none;fill:[Object GCMYKColor];stroke:none;">AS YOU SCROLL IT BECOMES VISIBLE</text><text transform="matrix(1,0,0,1,199,297.759)" style="font-family:'Open Sans';font-weight:400;font-size:20px;font-style:normal;font-variant-ligatures:none;fill:[Object GCMYKColor];stroke:none;">E.G: We need your help</text></g><g><rect x="524" y="140" width="390" height="300" transform="matrix(1,0,0,1,0,0)" fill="none" vector-effect="non-scaling-stroke" stroke-width="1" stroke="rgb(0,0,0)" stroke-linejoin="miter" stroke-linecap="square" stroke-miterlimit="2"/><text transform="matrix(1,0,0,1,527,161.377)" style="font-family:'Open Sans';font-weight:400;font-size:20px;font-style:normal;font-variant-ligatures:none;fill:[Object GCMYKColor];stroke:none;">MAIN CONTENT:</text><text transform="matrix(1,0,0,1,527,188.613)" style="font-family:'Open Sans';font-weight:400;font-size:20px;font-style:normal;font-variant-ligatures:none;fill:[Object GCMYKColor];stroke:none;">AS YOU SCROLL IT BECOMES VISIBLE</text><text transform="matrix(1,0,0,1,609,297.759)" style="font-family:'Open Sans';font-weight:400;font-size:20px;font-style:normal;font-variant-ligatures:none;fill:[Object GCMYKColor];stroke:none;">E.G:  Easy steps 1, 2, 3</text></g></g></g></g></g></svg>